HIERARCHY
ROOT Hips
{
	OFFSET 0.000000 0.000000 0.000000 
	CHANNELS 6 Xposition Yposition Zposition Yrotation Zrotation Xrotation 
	JOINT Lumbar
	{
		OFFSET 0.000000 0.000000 0.000000 
		CHANNELS 3 Zrotation Xrotation Yrotation
		JOINT Neck
		{
			OFFSET 0.000000 0.445665 0.000000 
			CHANNELS 3 Zrotation Xrotation Yrotation
			End Site
			{
				OFFSET 0.000000 0.227535 0.000000 
			}
		}
		JOINT RightShoulder
		{
			OFFSET 0.019635 0.377685 0.194865 
			CHANNELS 3 Zrotation Xrotation Yrotation
			JOINT RightElbow
			{
				OFFSET 0.000000 -0.243375 0.000000 
				CHANNELS 2 Zrotation Yrotation
				JOINT RightWrist
				{
					OFFSET 0.000000 -0.264825 0.000000 
					CHANNELS 2 Zrotation Xrotation
					End Site
					{
						OFFSET 0.006600 -0.176220 0.000990 
					}
				}
			}
		}
		JOINT LeftShoulder
		{
			OFFSET 0.019635 0.377685 -0.194865 
			CHANNELS 3 Zrotation Xrotation Yrotation
			JOINT LeftElbow
			{
				OFFSET 0.000000 -0.243375 0.000000 
				CHANNELS 2 Zrotation Yrotation
				JOINT LeftWrist
				{
					OFFSET 0.000000 -0.264825 0.000000 
					CHANNELS 2 Zrotation Xrotation
					End Site
					{
						OFFSET 0.006600 -0.176220 -0.000990 
					}
				}
			}
		}
	}
	JOINT RightHip
	{
		OFFSET 0.052140 -0.069960 0.075570 
		CHANNELS 3 Zrotation Xrotation Yrotation
		JOINT RightKnee
		{
			OFFSET 0.000000 -0.402270 0.000000 
			CHANNELS 1 Zrotation
			JOINT RightAnkle
			{
				OFFSET 0.000000 -0.404085 0.000000 
				CHANNELS 3 Zrotation Xrotation Yrotation
				End Site
				{
					OFFSET 0.204105 -0.089430 0.008415 
				}
			}
		}
	}
	JOINT LeftHip
	{
		OFFSET 0.052140 -0.069960 -0.075570 
		CHANNELS 3 Zrotation Xrotation Yrotation
		JOINT LeftKnee
		{
			OFFSET 0.000000 -0.402270 0.000000 
			CHANNELS 1 Zrotation
			JOINT LeftAnkle
			{
				OFFSET 0.000000 -0.404085 0.000000 
				CHANNELS 3 Zrotation Xrotation Yrotation
				End Site
				{
					OFFSET 0.204105 -0.089430 -0.008415 
				}
			}
		}
	}
}
MOTION
Frames: 28
Frame Time: 0.02
0.00237 0.00014 -0.00079 16.47148 -20.59661 -6.33879 44.97517 2.10625 -5.6452 -7.31183 -5.37658 -0.1001 -13.44569 -13.6983 11.52607 47.81228 67.36844 1.99389 -5.38933 -21.47191 12.67602 -8.66807 45.79287 -93.76264 11.81072 0.57291 33.62427 -1.0731 -5.85007 -21.11121 -9.31783 -5.3092 -3.58971 36.12644 8.56187 3.39731 -26.96412 -8.6494 4.80773 3.31813
0.0032 0.00026 0.00061 16.41583 -20.63553 -6.30618 44.97305 2.11149 -5.52946 -7.48446 -5.24893 -0.10162 -13.83759 -13.28483 10.37264 46.99879 71.65906 2.78339 -4.43658 -21.85619 12.73234 -8.17587 45.45989 -93.85551 11.85393 0.56996 33.66578 -1.03402 -6.04939 -21.13011 -9.27924 -5.28718 -3.57802 36.12738 8.6363 3.32534 -26.95839 -8.67191 4.81661 3.32296
0.00402 0.00037 0.00201 16.3606 -20.6744 -6.27368 44.97079 2.11667 -5.41408 -7.65674 -5.12152 -0.10314 -14.22909 -12.87284 9.22247 46.1867 75.93114 3.56943 -3.48796 -22.2397 12.78867 -7.68462 45.12732 -93.94816 11.8971 0.56701 33.70721 -0.99501 -6.24866 -21.14898 -9.24072 -5.26519 -3.56635 36.12843 8.71073 3.25389 -26.95266 -8.6943 4.8254 3.32774
0.00484 0.00048 0.0034 16.30516 -20.7132 -6.24117 44.96866 2.12189 -5.29869 -7.82887 -4.99423 -0.10466 -14.61991 -12.46068 8.07256 45.37553 80.20751 4.35629 -2.53838 -22.62287 12.84484 -7.19386 44.79528 -94.04076 11.94019 0.56407 33.7486 -0.95605 -6.44746 -21.16782 -9.20224 -5.24322 -3.5547 36.12937 8.78496 3.1822 -26.94695 -8.71673 4.83424 3.33256
0.00567 0.00059 0.0048 16.24921 -20.75204 -6.20854 44.96672 2.1272 -5.18295 -8.00128 -4.86677 -0.10618 -15.01086 -12.04694 6.91943 44.5634 84.50486 5.14709 -1.58412 -23.00663 12.90096 -6.70233 44.46304 -94.13355 11.9833 0.56115 33.79006 -0.91699 -6.64606 -21.18669 -9.16372 -5.22124 -3.54303 36.13017 8.85911 3.10985 -26.94123 -8.73929 4.84319 3.33744
0.00649 0.0007 0.0062 16.1955 -20.79098 -6.17631 44.96377 2.13208 -5.06833 -8.17328 -4.73946 -0.10769 -15.40349 -11.63864 5.77551 43.75147 88.72392 5.92313 -0.64732 -23.38957 12.95773 -6.21172 44.12978 -94.22589 12.02658 0.55812 33.83145 -0.8781 -6.84673 -21.20556 -9.12521 -5.19924 -3.53136 36.13174 8.93413 3.04026 -26.9355 -8.76133 4.85164 3.34202
0.00732 0.00081 0.0076 16.13731 -20.82964 -6.14331 44.96289 2.13783 -4.95158 -8.34592 -4.61197 -0.10921 -15.79225 -11.21992 4.61454 42.94 93.09426 6.72769 0.3232 -23.77378 13.01311 -5.71987 43.79901 -94.31904 12.06947 0.55531 33.87289 -0.83895 -7.04307 -21.22442 -9.08671 -5.17728 -3.51971 36.13172 9.00731 2.96531 -26.9298 -8.78439 4.86108 3.34719
0.00814 0.00092 0.009 16.08334 -20.86861 -6.11102 44.96003 2.14276 -4.8368 -8.51794 -4.48469 -0.11073 -16.18469 -10.81067 3.46888 42.12816 97.328 7.50656 1.2633 -24.15675 13.06979 -5.22901 43.46582 -94.41142 12.11272 0.55231 33.91436 -0.79997 -7.24329 -21.24328 -9.04822 -5.15531 -3.50805 36.13327 9.08218 2.89508 -26.92407 -8.80653 4.86963 3.35183
0.00895 0.00103 0.01041 16.03419 -20.9078 -6.07958 44.955 2.14675 -4.72436 -8.68942 -4.35743 -0.11224 -16.58147 -10.41341 2.34305 41.31513 101.38408 8.25174 2.16371 -24.53874 13.12802 -4.73966 43.12991 -94.503 12.15645 0.54903 33.95559 -0.76147 -7.44891 -21.26216 -9.00963 -5.13323 -3.49631 36.13632 9.15924 2.83153 -26.9183 -8.82744 4.87701 3.35579
0.00981 0.00114 0.01177 15.95629 -20.94525 -6.0432 44.96321 2.15633 -4.59824 -8.8647 -4.22931 -0.11377 -16.95284 -9.9484 1.10646 40.50665 106.43026 9.18389 3.28498 -24.928 13.17723 -4.24251 42.81034 -94.59965 12.19752 0.54724 33.99738 -0.72102 -7.62544 -21.28098 -8.97127 -5.11149 -3.48484 36.12948 9.22405 2.73227 -26.91276 -8.85511 4.89089 3.36355
0.01057 0.00124 0.01323 15.93968 -20.98666 -6.01729 44.94303 2.15403 -4.50112 -9.03147 -4.1035 -0.11526 -17.37795 -9.62554 0.10151 39.69022 109.40829 9.72602 3.94513 -25.30077 13.24553 -3.76133 42.45597 -94.68528 12.24412 0.54237 34.03849 -0.68418 -7.86201 -21.29988 -8.93266 -5.08923 -3.47291 36.14429 9.31444 2.70658 -26.90674 -8.86875 4.89119 3.36337
0.01109 0.00131 0.01496 16.08767 -21.03677 -6.02004 44.84768 2.11942 -4.48324 -9.17878 -3.98013 -0.11668 -17.95112 -9.70312 -0.24443 38.83831 106.4821 9.15019 3.28711 -25.63745 13.36618 -3.32847 42.00761 -94.74304 12.30683 0.52834 34.07381 -0.66151 -8.27622 -21.31935 -8.89147 -5.06364 -3.45874 36.21256 9.47806 2.89971 -26.89937 -8.8414 4.8526 3.34037
0.01149 0.00136 0.01679 16.29786 -21.09122 -6.03329 44.7232 2.07285 -4.49449 -9.31682 -3.85988 -0.11805 -18.5779 -9.92162 -0.36158 37.98135 101.52074 8.19138 2.17559 -25.95572 13.50599 -2.91104 41.52425 -94.78929 12.37497 0.51136 34.10918 -0.64168 -8.74831 -21.33884 -8.85037 -5.03785 -3.44427 36.30362 9.66683 3.16369 -26.8915 -8.8004 4.80066 3.30956
0.01194 0.00141 0.0186 16.48196 -21.14517 -6.04181 44.61041 2.03154 -4.49268 -9.45652 -3.74066 -0.11942 -19.18008 -10.06867 -0.59943 37.13507 97.6414 7.43917 1.30647 -26.27666 13.63708 -2.48331 41.05558 -94.83928 12.43997 0.49619 34.14712 -0.61783 -9.1856 -21.35812 -8.81049 -5.01337 -3.43058 36.38815 9.84205 3.38406 -26.8839 -8.76725 4.75592 3.28301
0.01243 0.00147 0.02031 16.65703 -21.19313 -6.05026 44.50458 1.99084 -4.49034 -9.60692 -3.61081 -0.12089 -19.78436 -10.24679 -0.76852 36.25168 93.09831 6.54947 0.28427 -26.6223 13.76834 -2.0685 40.59093 -94.89558 12.50765 0.479 34.17418 -0.60559 -9.65909 -21.37828 -8.76533 -4.9838 -3.4142 36.45668 10.02609 3.65229 -26.87623 -8.72715 4.70644 3.2535
0.0128 0.00151 0.02224 16.86561 -21.25434 -6.06123 44.37672 1.94614 -4.49579 -9.73291 -3.50419 -0.12216 -20.39573 -10.39423 -1.02372 35.44654 89.45069 5.85448 -0.52798 -26.91127 13.90366 -1.63168 40.11089 -94.93596 12.57124 0.46534 34.22384 -0.56971 -10.07062 -21.39658 -8.73115 -4.96473 -3.40334 36.56382 10.19795 3.83819 -26.86847 -8.69828 4.66356 3.22825
0.0129 0.00148 0.02471 17.15159 -21.35321 -6.07769 44.20053 1.89254 -4.51736 -9.79311 -3.45785 -0.1228 -21.02324 -10.41644 -1.59757 34.84085 88.82157 5.79995 -0.63546 -27.05539 14.04645 -1.12007 39.58649 -94.93557 12.62028 0.46198 34.33656 -0.469 -10.29847 -21.40981 -8.72773 -4.97503 -3.40788 36.77309 10.32731 3.77188 -26.86163 -8.70419 4.64327 3.21726
0.01289 0.00141 0.0274 17.46907 -21.4649 -6.0961 44.00208 1.83551 -4.54543 -9.8291 -3.43531 -0.1233 -21.65372 -10.40403 -2.2611 34.3177 89.15561 5.95293 -0.51843 -27.14164 14.19239 -0.58809 39.05009 -94.91937 12.66526 0.46232 34.47205 -0.34413 -10.46128 -21.42115 -8.73529 -4.99586 -3.418 37.02034 10.44363 3.61996 -26.85453 -8.72198 4.63005 3.21081
0.01292 0.00136 0.03001 17.77207 -21.56923 -6.1129 43.81043 1.78051 -4.56931 -9.87673 -3.40392 -0.12391 -22.2771 -10.41133 -2.86771 33.76818 89.01807 6.00521 -0.51335 -27.24992 14.33638 -0.07158 38.52558 -94.91031 12.71351 0.46105 34.5965 -0.22967 -10.65326 -21.43327 -8.73746 -5.01159 -3.42548 37.24929 10.56818 3.51434 -26.84689 -8.73384 4.61265 3.20174
0.01298 0.00132 0.03253 18.07807 -21.67998 -6.13318 43.6322 1.72293 -4.59933 -9.92175 -3.36446 -0.12424 -22.92866 -10.40661 -3.53584 33.17037 88.95257 6.07153 -0.48247 -27.37623 14.48362 0.47235 37.97127 -94.90149 12.75639 0.45929 34.72327 -0.11795 -10.85039 -21.44567 -8.74119 -5.02853 -3.43331 37.48289 10.68553 3.38701 -26.84202 -8.74675 4.59816 3.19433
0.01294 0.00125 0.0353 18.38434 -21.78063 -6.14651 43.42057 1.67028 -4.61787 -9.96609 -3.34725 -0.12523 -23.51897 -10.41705 -4.09852 32.69416 88.99206 6.16237 -0.4458 -27.45067 14.62411 0.96205 37.47841 -94.88798 12.80885 0.45961 34.85136 0.00559 -11.01873 -21.4571 -8.74445 -5.04558 -3.44183 37.7162 10.81237 3.2748 -26.83129 -8.76139 4.58032 3.18516
0.01267 0.00111 0.03867 18.6844 -21.84795 -6.14023 43.12689 1.63048 -4.60174 -10.01856 -3.38715 -0.12727 -23.96046 -10.47567 -4.36256 32.52224 89.10188 6.27727 -0.44745 -27.403 14.74904 1.31497 37.14357 -94.87087 12.89376 0.46366 34.97116 0.15244 -11.1405 -21.46582 -8.74202 -5.05901 -3.45018 37.93366 10.98687 3.30322 -26.80466 -8.76976 4.544 3.16544
0.01229 0.00093 0.0423 18.98311 -21.9051 -6.12679 42.79964 1.59621 -4.57389 -10.07044 -3.44824 -0.13015 -24.33554 -10.55042 -4.51586 32.47195 89.29405 6.4109 -0.44831 -27.30386 14.86617 1.60904 36.87418 -94.8488 12.98757 0.46992 35.09269 0.31073 -11.23315 -21.47371 -8.73891 -5.07232 -3.45911 38.1505 11.16823 3.33683 -26.77208 -8.78088 4.50535 3.14458
0.01194 0.00077 0.04582 19.28169 -21.96837 -6.1166 42.48482 1.56041 -4.55227 -10.12001 -3.49879 -0.13318 -24.72758 -10.61855 -4.71143 32.37341 89.44486 6.53243 -0.44833 -27.22395 14.98437 1.91873 36.58419 -94.82525 13.07387 0.47592 35.21762 0.4664 -11.32629 -21.4823 -8.73745 -5.0867 -3.46833 38.37122 11.33388 3.31412 -26.74206 -8.79636 4.47297 3.12744
0.01168 0.00063 0.04929 19.58481 -22.02569 -6.10668 42.18113 1.51994 -4.52736 -10.17977 -3.55443 -0.13396 -25.17753 -10.68269 -4.94378 32.24817 89.6336 6.67353 -0.44808 -27.15991 15.11351 2.27731 36.25392 -94.81623 13.17433 0.4789 35.32569 0.6132 -11.46653 -21.48946 -8.73137 -5.09762 -3.47568 38.57794 11.55068 3.5083 -26.71262 -8.78927 4.41955 3.09738
0.0112 0.00043 0.05294 19.87742 -22.09292 -6.09425 41.84661 1.49102 -4.50609 -10.21828 -3.60367 -0.13963 -25.48856 -10.75927 -5.07235 32.20627 89.76439 6.77887 -0.44832 -27.0509 15.21749 2.51828 36.02478 -94.77684 13.2479 0.48865 35.46894 0.77939 -11.5082 -21.49944 -8.73379 -5.11504 -3.48663 38.81338 11.66469 3.26307 -26.68061 -8.8288 4.40839 3.09334
0.01016 8e-05 0.05704 20.14295 -22.18887 -6.0784 41.43537 1.48862 -4.49983 -10.20002 -3.6337 -0.15853 -25.45204 -10.86741 -4.93785 32.36349 89.59031 6.75182 -0.47491 -26.8347 15.25818 2.46148 36.04619 -94.64756 13.24136 0.51635 35.70915 1.00912 -11.23543 -21.51712 -8.7669 -5.15512 -3.51038 39.12606 11.47655 1.71778 -26.6431 -9.00401 4.52238 3.16623
0.0089 -0.00033 0.06131 20.397 -22.29511 -6.05981 40.9946 1.49836 -4.49677 -10.16019 -3.6554 -0.18231 -25.27349 -10.98752 -4.7022 32.59897 89.37027 6.69179 -0.49917 -26.57464 15.27318 2.28563 36.1696 -94.48955 13.20824 0.55071 35.98433 1.25561 -10.87301 -21.53769 -8.8073 -5.20089 -3.53717 39.46767 11.18794 -0.25328 -26.60354 -9.22458 4.67749 3.26444
